<mxfile host="app.diagrams.net" modified="2023-10-27T00:33:26.728Z" agent="Mozilla/5.0 (Windows NT 10.0; Win64; x64) AppleWebKit/537.36 (KHTML, like Gecko) Chrome/116.0.0.0 Safari/537.36 OPR/102.0.0.0" etag="nASRjorKJ2yFWt3NgDzg" version="22.0.8" type="github">
  <diagram name="Page-1" id="hmlqGC8t6bdOWbWsmYjJ">
    <mxGraphModel dx="1121" dy="637" grid="1" gridSize="10" guides="1" tooltips="1" connect="1" arrows="1" fold="1" page="1" pageScale="1" pageWidth="850" pageHeight="1100" math="0" shadow="0">
      <root>
        <mxCell id="0" />
        <mxCell id="1" parent="0" />
        <mxCell id="oL1YtEc-q71KZIG-ltQX-19" style="edgeStyle=orthogonalEdgeStyle;rounded=0;orthogonalLoop=1;jettySize=auto;html=1;" edge="1" parent="1" source="oL1YtEc-q71KZIG-ltQX-31" target="oL1YtEc-q71KZIG-ltQX-3">
          <mxGeometry relative="1" as="geometry" />
        </mxCell>
        <mxCell id="oL1YtEc-q71KZIG-ltQX-1" value="LOGIN" style="rounded=0;whiteSpace=wrap;html=1;" vertex="1" parent="1">
          <mxGeometry x="100" y="230" width="120" height="60" as="geometry" />
        </mxCell>
        <mxCell id="oL1YtEc-q71KZIG-ltQX-17" style="edgeStyle=orthogonalEdgeStyle;rounded=0;orthogonalLoop=1;jettySize=auto;html=1;exitX=0.5;exitY=1;exitDx=0;exitDy=0;entryX=0.5;entryY=0;entryDx=0;entryDy=0;" edge="1" parent="1" source="oL1YtEc-q71KZIG-ltQX-29" target="oL1YtEc-q71KZIG-ltQX-1">
          <mxGeometry relative="1" as="geometry" />
        </mxCell>
        <mxCell id="oL1YtEc-q71KZIG-ltQX-60" style="edgeStyle=orthogonalEdgeStyle;rounded=0;orthogonalLoop=1;jettySize=auto;html=1;entryX=0;entryY=0.5;entryDx=0;entryDy=0;" edge="1" parent="1" source="oL1YtEc-q71KZIG-ltQX-61" target="oL1YtEc-q71KZIG-ltQX-7">
          <mxGeometry relative="1" as="geometry" />
        </mxCell>
        <mxCell id="oL1YtEc-q71KZIG-ltQX-2" value="USER" style="rounded=0;whiteSpace=wrap;html=1;" vertex="1" parent="1">
          <mxGeometry x="100" y="80" width="120" height="60" as="geometry" />
        </mxCell>
        <mxCell id="oL1YtEc-q71KZIG-ltQX-15" style="edgeStyle=orthogonalEdgeStyle;rounded=0;orthogonalLoop=1;jettySize=auto;html=1;exitX=1;exitY=0.5;exitDx=0;exitDy=0;entryX=0;entryY=0.5;entryDx=0;entryDy=0;" edge="1" parent="1" source="oL1YtEc-q71KZIG-ltQX-35" target="oL1YtEc-q71KZIG-ltQX-8">
          <mxGeometry relative="1" as="geometry" />
        </mxCell>
        <mxCell id="oL1YtEc-q71KZIG-ltQX-20" style="edgeStyle=orthogonalEdgeStyle;rounded=0;orthogonalLoop=1;jettySize=auto;html=1;exitX=0.5;exitY=0;exitDx=0;exitDy=0;entryX=0.5;entryY=1;entryDx=0;entryDy=0;" edge="1" parent="1" source="oL1YtEc-q71KZIG-ltQX-33" target="oL1YtEc-q71KZIG-ltQX-7">
          <mxGeometry relative="1" as="geometry" />
        </mxCell>
        <mxCell id="oL1YtEc-q71KZIG-ltQX-55" style="edgeStyle=orthogonalEdgeStyle;rounded=0;orthogonalLoop=1;jettySize=auto;html=1;entryX=0;entryY=0.5;entryDx=0;entryDy=0;" edge="1" parent="1" source="oL1YtEc-q71KZIG-ltQX-3" target="oL1YtEc-q71KZIG-ltQX-49">
          <mxGeometry relative="1" as="geometry">
            <Array as="points">
              <mxPoint x="370" y="310" />
            </Array>
          </mxGeometry>
        </mxCell>
        <mxCell id="oL1YtEc-q71KZIG-ltQX-63" style="edgeStyle=orthogonalEdgeStyle;rounded=0;orthogonalLoop=1;jettySize=auto;html=1;entryX=1;entryY=0.5;entryDx=0;entryDy=0;" edge="1" parent="1" source="oL1YtEc-q71KZIG-ltQX-3" target="oL1YtEc-q71KZIG-ltQX-46">
          <mxGeometry relative="1" as="geometry">
            <Array as="points">
              <mxPoint x="350" y="310" />
            </Array>
          </mxGeometry>
        </mxCell>
        <mxCell id="oL1YtEc-q71KZIG-ltQX-3" value="ASSIGN EVENTS" style="rounded=0;whiteSpace=wrap;html=1;" vertex="1" parent="1">
          <mxGeometry x="310" y="230" width="120" height="60" as="geometry" />
        </mxCell>
        <mxCell id="oL1YtEc-q71KZIG-ltQX-4" value="RECORDS" style="rounded=0;whiteSpace=wrap;html=1;" vertex="1" parent="1">
          <mxGeometry x="200" y="350" width="120" height="60" as="geometry" />
        </mxCell>
        <mxCell id="oL1YtEc-q71KZIG-ltQX-52" style="edgeStyle=orthogonalEdgeStyle;rounded=0;orthogonalLoop=1;jettySize=auto;html=1;entryX=0.5;entryY=1;entryDx=0;entryDy=0;" edge="1" parent="1" source="oL1YtEc-q71KZIG-ltQX-5" target="oL1YtEc-q71KZIG-ltQX-41">
          <mxGeometry relative="1" as="geometry" />
        </mxCell>
        <mxCell id="oL1YtEc-q71KZIG-ltQX-5" value="ADMINS" style="rounded=0;whiteSpace=wrap;html=1;" vertex="1" parent="1">
          <mxGeometry x="200" y="540" width="120" height="60" as="geometry" />
        </mxCell>
        <mxCell id="oL1YtEc-q71KZIG-ltQX-64" style="edgeStyle=orthogonalEdgeStyle;rounded=0;orthogonalLoop=1;jettySize=auto;html=1;entryX=0;entryY=0.5;entryDx=0;entryDy=0;" edge="1" parent="1" source="oL1YtEc-q71KZIG-ltQX-7" target="oL1YtEc-q71KZIG-ltQX-43">
          <mxGeometry relative="1" as="geometry" />
        </mxCell>
        <mxCell id="oL1YtEc-q71KZIG-ltQX-7" value="THE EVENT" style="rounded=0;whiteSpace=wrap;html=1;" vertex="1" parent="1">
          <mxGeometry x="310" y="80" width="120" height="60" as="geometry" />
        </mxCell>
        <mxCell id="oL1YtEc-q71KZIG-ltQX-28" style="edgeStyle=orthogonalEdgeStyle;rounded=0;orthogonalLoop=1;jettySize=auto;html=1;entryX=1;entryY=0.5;entryDx=0;entryDy=0;" edge="1" parent="1" source="oL1YtEc-q71KZIG-ltQX-37" target="oL1YtEc-q71KZIG-ltQX-24">
          <mxGeometry relative="1" as="geometry" />
        </mxCell>
        <mxCell id="oL1YtEc-q71KZIG-ltQX-8" value="PAYMENT" style="rounded=0;whiteSpace=wrap;html=1;" vertex="1" parent="1">
          <mxGeometry x="530" y="230" width="120" height="60" as="geometry" />
        </mxCell>
        <mxCell id="oL1YtEc-q71KZIG-ltQX-21" value="EMPLOYEE" style="rounded=0;whiteSpace=wrap;html=1;" vertex="1" parent="1">
          <mxGeometry x="425" y="350" width="120" height="60" as="geometry" />
        </mxCell>
        <mxCell id="oL1YtEc-q71KZIG-ltQX-53" style="edgeStyle=orthogonalEdgeStyle;rounded=0;orthogonalLoop=1;jettySize=auto;html=1;entryX=0.5;entryY=1;entryDx=0;entryDy=0;" edge="1" parent="1" source="oL1YtEc-q71KZIG-ltQX-24" target="oL1YtEc-q71KZIG-ltQX-39">
          <mxGeometry relative="1" as="geometry" />
        </mxCell>
        <mxCell id="oL1YtEc-q71KZIG-ltQX-160" style="edgeStyle=orthogonalEdgeStyle;rounded=0;orthogonalLoop=1;jettySize=auto;html=1;entryX=0.5;entryY=1;entryDx=0;entryDy=0;" edge="1" parent="1" source="oL1YtEc-q71KZIG-ltQX-161" target="oL1YtEc-q71KZIG-ltQX-5">
          <mxGeometry relative="1" as="geometry">
            <Array as="points" />
          </mxGeometry>
        </mxCell>
        <mxCell id="oL1YtEc-q71KZIG-ltQX-163" style="edgeStyle=orthogonalEdgeStyle;rounded=0;orthogonalLoop=1;jettySize=auto;html=1;entryX=1;entryY=0.5;entryDx=0;entryDy=0;" edge="1" parent="1" source="oL1YtEc-q71KZIG-ltQX-24" target="oL1YtEc-q71KZIG-ltQX-161">
          <mxGeometry relative="1" as="geometry">
            <Array as="points">
              <mxPoint x="485" y="620" />
            </Array>
          </mxGeometry>
        </mxCell>
        <mxCell id="oL1YtEc-q71KZIG-ltQX-24" value="EMPLOYER" style="rounded=0;whiteSpace=wrap;html=1;" vertex="1" parent="1">
          <mxGeometry x="425" y="540" width="120" height="60" as="geometry" />
        </mxCell>
        <mxCell id="oL1YtEc-q71KZIG-ltQX-30" value="" style="edgeStyle=orthogonalEdgeStyle;rounded=0;orthogonalLoop=1;jettySize=auto;html=1;exitX=0.5;exitY=1;exitDx=0;exitDy=0;entryX=0.5;entryY=0;entryDx=0;entryDy=0;" edge="1" parent="1" source="oL1YtEc-q71KZIG-ltQX-2" target="oL1YtEc-q71KZIG-ltQX-29">
          <mxGeometry relative="1" as="geometry">
            <mxPoint x="160" y="140" as="sourcePoint" />
            <mxPoint x="160" y="230" as="targetPoint" />
          </mxGeometry>
        </mxCell>
        <mxCell id="oL1YtEc-q71KZIG-ltQX-29" value="has" style="rhombus;whiteSpace=wrap;html=1;" vertex="1" parent="1">
          <mxGeometry x="135" y="170" width="50" height="40" as="geometry" />
        </mxCell>
        <mxCell id="oL1YtEc-q71KZIG-ltQX-32" value="" style="edgeStyle=orthogonalEdgeStyle;rounded=0;orthogonalLoop=1;jettySize=auto;html=1;" edge="1" parent="1" source="oL1YtEc-q71KZIG-ltQX-1" target="oL1YtEc-q71KZIG-ltQX-31">
          <mxGeometry relative="1" as="geometry">
            <mxPoint x="220" y="260" as="sourcePoint" />
            <mxPoint x="310" y="260" as="targetPoint" />
          </mxGeometry>
        </mxCell>
        <mxCell id="oL1YtEc-q71KZIG-ltQX-31" value="books" style="rhombus;whiteSpace=wrap;html=1;" vertex="1" parent="1">
          <mxGeometry x="235" y="240" width="50" height="40" as="geometry" />
        </mxCell>
        <mxCell id="oL1YtEc-q71KZIG-ltQX-34" value="" style="edgeStyle=orthogonalEdgeStyle;rounded=0;orthogonalLoop=1;jettySize=auto;html=1;exitX=0.5;exitY=0;exitDx=0;exitDy=0;entryX=0.5;entryY=1;entryDx=0;entryDy=0;" edge="1" parent="1" source="oL1YtEc-q71KZIG-ltQX-3" target="oL1YtEc-q71KZIG-ltQX-33">
          <mxGeometry relative="1" as="geometry">
            <mxPoint x="370" y="230" as="sourcePoint" />
            <mxPoint x="375" y="170" as="targetPoint" />
          </mxGeometry>
        </mxCell>
        <mxCell id="oL1YtEc-q71KZIG-ltQX-33" value="has" style="rhombus;whiteSpace=wrap;html=1;" vertex="1" parent="1">
          <mxGeometry x="345" y="170" width="50" height="40" as="geometry" />
        </mxCell>
        <mxCell id="oL1YtEc-q71KZIG-ltQX-36" value="" style="edgeStyle=orthogonalEdgeStyle;rounded=0;orthogonalLoop=1;jettySize=auto;html=1;exitX=1;exitY=0.5;exitDx=0;exitDy=0;entryX=0;entryY=0.5;entryDx=0;entryDy=0;" edge="1" parent="1" source="oL1YtEc-q71KZIG-ltQX-3" target="oL1YtEc-q71KZIG-ltQX-35">
          <mxGeometry relative="1" as="geometry">
            <mxPoint x="430" y="260" as="sourcePoint" />
            <mxPoint x="520" y="270" as="targetPoint" />
          </mxGeometry>
        </mxCell>
        <mxCell id="oL1YtEc-q71KZIG-ltQX-35" value="needs" style="rhombus;whiteSpace=wrap;html=1;" vertex="1" parent="1">
          <mxGeometry x="450" y="240" width="50" height="40" as="geometry" />
        </mxCell>
        <mxCell id="oL1YtEc-q71KZIG-ltQX-38" value="" style="edgeStyle=orthogonalEdgeStyle;rounded=0;orthogonalLoop=1;jettySize=auto;html=1;entryX=1;entryY=0.5;entryDx=0;entryDy=0;" edge="1" parent="1" source="oL1YtEc-q71KZIG-ltQX-8" target="oL1YtEc-q71KZIG-ltQX-37">
          <mxGeometry relative="1" as="geometry">
            <mxPoint x="590" y="290" as="sourcePoint" />
            <mxPoint x="545" y="500" as="targetPoint" />
            <Array as="points">
              <mxPoint x="670" y="260" />
              <mxPoint x="670" y="570" />
            </Array>
          </mxGeometry>
        </mxCell>
        <mxCell id="oL1YtEc-q71KZIG-ltQX-37" value="receives&lt;br&gt;by" style="rhombus;whiteSpace=wrap;html=1;" vertex="1" parent="1">
          <mxGeometry x="570" y="540" width="70" height="60" as="geometry" />
        </mxCell>
        <mxCell id="oL1YtEc-q71KZIG-ltQX-54" style="edgeStyle=orthogonalEdgeStyle;rounded=0;orthogonalLoop=1;jettySize=auto;html=1;entryX=0.5;entryY=1;entryDx=0;entryDy=0;" edge="1" parent="1" source="oL1YtEc-q71KZIG-ltQX-39" target="oL1YtEc-q71KZIG-ltQX-21">
          <mxGeometry relative="1" as="geometry" />
        </mxCell>
        <mxCell id="oL1YtEc-q71KZIG-ltQX-39" value="has" style="rhombus;whiteSpace=wrap;html=1;" vertex="1" parent="1">
          <mxGeometry x="460" y="460" width="50" height="40" as="geometry" />
        </mxCell>
        <mxCell id="oL1YtEc-q71KZIG-ltQX-51" style="edgeStyle=orthogonalEdgeStyle;rounded=0;orthogonalLoop=1;jettySize=auto;html=1;entryX=0.5;entryY=1;entryDx=0;entryDy=0;" edge="1" parent="1" source="oL1YtEc-q71KZIG-ltQX-41" target="oL1YtEc-q71KZIG-ltQX-4">
          <mxGeometry relative="1" as="geometry" />
        </mxCell>
        <mxCell id="oL1YtEc-q71KZIG-ltQX-41" value="manages" style="rhombus;whiteSpace=wrap;html=1;" vertex="1" parent="1">
          <mxGeometry x="227.5" y="440" width="65" height="50" as="geometry" />
        </mxCell>
        <mxCell id="oL1YtEc-q71KZIG-ltQX-65" style="edgeStyle=orthogonalEdgeStyle;rounded=0;orthogonalLoop=1;jettySize=auto;html=1;entryX=1;entryY=0.5;entryDx=0;entryDy=0;" edge="1" parent="1" source="oL1YtEc-q71KZIG-ltQX-43" target="oL1YtEc-q71KZIG-ltQX-21">
          <mxGeometry relative="1" as="geometry">
            <Array as="points">
              <mxPoint x="715" y="380" />
            </Array>
          </mxGeometry>
        </mxCell>
        <mxCell id="oL1YtEc-q71KZIG-ltQX-43" value="contracts" style="rhombus;whiteSpace=wrap;html=1;" vertex="1" parent="1">
          <mxGeometry x="670" y="80" width="90" height="60" as="geometry" />
        </mxCell>
        <mxCell id="oL1YtEc-q71KZIG-ltQX-59" style="edgeStyle=orthogonalEdgeStyle;rounded=0;orthogonalLoop=1;jettySize=auto;html=1;entryX=0.5;entryY=0;entryDx=0;entryDy=0;" edge="1" parent="1" source="oL1YtEc-q71KZIG-ltQX-46" target="oL1YtEc-q71KZIG-ltQX-4">
          <mxGeometry relative="1" as="geometry" />
        </mxCell>
        <mxCell id="oL1YtEc-q71KZIG-ltQX-46" value="has" style="rhombus;whiteSpace=wrap;html=1;" vertex="1" parent="1">
          <mxGeometry x="235" y="290" width="50" height="40" as="geometry" />
        </mxCell>
        <mxCell id="oL1YtEc-q71KZIG-ltQX-56" style="edgeStyle=orthogonalEdgeStyle;rounded=0;orthogonalLoop=1;jettySize=auto;html=1;entryX=0.5;entryY=0;entryDx=0;entryDy=0;" edge="1" parent="1" source="oL1YtEc-q71KZIG-ltQX-49" target="oL1YtEc-q71KZIG-ltQX-21">
          <mxGeometry relative="1" as="geometry" />
        </mxCell>
        <mxCell id="oL1YtEc-q71KZIG-ltQX-49" value="has" style="rhombus;whiteSpace=wrap;html=1;" vertex="1" parent="1">
          <mxGeometry x="460" y="290" width="50" height="40" as="geometry" />
        </mxCell>
        <mxCell id="oL1YtEc-q71KZIG-ltQX-62" value="" style="edgeStyle=orthogonalEdgeStyle;rounded=0;orthogonalLoop=1;jettySize=auto;html=1;entryX=0;entryY=0.5;entryDx=0;entryDy=0;" edge="1" parent="1" source="oL1YtEc-q71KZIG-ltQX-2" target="oL1YtEc-q71KZIG-ltQX-61">
          <mxGeometry relative="1" as="geometry">
            <mxPoint x="220" y="110" as="sourcePoint" />
            <mxPoint x="310" y="110" as="targetPoint" />
          </mxGeometry>
        </mxCell>
        <mxCell id="oL1YtEc-q71KZIG-ltQX-61" value="has" style="rhombus;whiteSpace=wrap;html=1;" vertex="1" parent="1">
          <mxGeometry x="235" y="90" width="50" height="40" as="geometry" />
        </mxCell>
        <mxCell id="oL1YtEc-q71KZIG-ltQX-134" value="userID" style="ellipse;whiteSpace=wrap;html=1;" vertex="1" parent="1">
          <mxGeometry x="40" y="20" width="50" height="20" as="geometry" />
        </mxCell>
        <mxCell id="oL1YtEc-q71KZIG-ltQX-136" value="fn" style="ellipse;whiteSpace=wrap;html=1;" vertex="1" parent="1">
          <mxGeometry x="110" y="20" width="50" height="20" as="geometry" />
        </mxCell>
        <mxCell id="oL1YtEc-q71KZIG-ltQX-137" value="sn" style="ellipse;whiteSpace=wrap;html=1;" vertex="1" parent="1">
          <mxGeometry x="177.5" y="20" width="50" height="20" as="geometry" />
        </mxCell>
        <mxCell id="oL1YtEc-q71KZIG-ltQX-138" value="email" style="ellipse;whiteSpace=wrap;html=1;" vertex="1" parent="1">
          <mxGeometry x="20" y="70" width="50" height="20" as="geometry" />
        </mxCell>
        <mxCell id="oL1YtEc-q71KZIG-ltQX-139" value="address" style="ellipse;whiteSpace=wrap;html=1;" vertex="1" parent="1">
          <mxGeometry x="20" y="110" width="50" height="20" as="geometry" />
        </mxCell>
        <mxCell id="oL1YtEc-q71KZIG-ltQX-140" value="username" style="ellipse;whiteSpace=wrap;html=1;" vertex="1" parent="1">
          <mxGeometry x="30" y="210" width="50" height="20" as="geometry" />
        </mxCell>
        <mxCell id="oL1YtEc-q71KZIG-ltQX-141" value="password" style="ellipse;whiteSpace=wrap;html=1;" vertex="1" parent="1">
          <mxGeometry x="20" y="260" width="50" height="20" as="geometry" />
        </mxCell>
        <mxCell id="oL1YtEc-q71KZIG-ltQX-142" value="eventID" style="ellipse;whiteSpace=wrap;html=1;" vertex="1" parent="1">
          <mxGeometry x="320" y="40" width="50" height="20" as="geometry" />
        </mxCell>
        <mxCell id="oL1YtEc-q71KZIG-ltQX-143" value="event_name" style="ellipse;whiteSpace=wrap;html=1;" vertex="1" parent="1">
          <mxGeometry x="390" y="40" width="50" height="20" as="geometry" />
        </mxCell>
        <mxCell id="oL1YtEc-q71KZIG-ltQX-144" value="paymentID" style="ellipse;whiteSpace=wrap;html=1;" vertex="1" parent="1">
          <mxGeometry x="565" y="180" width="50" height="20" as="geometry" />
        </mxCell>
        <mxCell id="oL1YtEc-q71KZIG-ltQX-145" value="amount" style="ellipse;whiteSpace=wrap;html=1;" vertex="1" parent="1">
          <mxGeometry x="630" y="190" width="50" height="20" as="geometry" />
        </mxCell>
        <mxCell id="oL1YtEc-q71KZIG-ltQX-146" value="status" style="ellipse;whiteSpace=wrap;html=1;" vertex="1" parent="1">
          <mxGeometry x="500" y="190" width="50" height="20" as="geometry" />
        </mxCell>
        <mxCell id="oL1YtEc-q71KZIG-ltQX-148" value="method" style="ellipse;whiteSpace=wrap;html=1;" vertex="1" parent="1">
          <mxGeometry x="660" y="230" width="50" height="20" as="geometry" />
        </mxCell>
        <mxCell id="oL1YtEc-q71KZIG-ltQX-149" value="employeeID" style="ellipse;whiteSpace=wrap;html=1;" vertex="1" parent="1">
          <mxGeometry x="360" y="360" width="50" height="20" as="geometry" />
        </mxCell>
        <mxCell id="oL1YtEc-q71KZIG-ltQX-151" value="name" style="ellipse;whiteSpace=wrap;html=1;" vertex="1" parent="1">
          <mxGeometry x="360" y="400" width="50" height="20" as="geometry" />
        </mxCell>
        <mxCell id="oL1YtEc-q71KZIG-ltQX-152" value="name" style="ellipse;whiteSpace=wrap;html=1;" vertex="1" parent="1">
          <mxGeometry x="360" y="560" width="50" height="20" as="geometry" />
        </mxCell>
        <mxCell id="oL1YtEc-q71KZIG-ltQX-153" value="employerID" style="ellipse;whiteSpace=wrap;html=1;" vertex="1" parent="1">
          <mxGeometry x="360" y="530" width="50" height="20" as="geometry" />
        </mxCell>
        <mxCell id="oL1YtEc-q71KZIG-ltQX-154" value="recordID" style="ellipse;whiteSpace=wrap;html=1;" vertex="1" parent="1">
          <mxGeometry x="110" y="350" width="50" height="20" as="geometry" />
        </mxCell>
        <mxCell id="oL1YtEc-q71KZIG-ltQX-155" value="name" style="ellipse;whiteSpace=wrap;html=1;" vertex="1" parent="1">
          <mxGeometry x="110" y="390" width="50" height="20" as="geometry" />
        </mxCell>
        <mxCell id="oL1YtEc-q71KZIG-ltQX-156" value="description" style="ellipse;whiteSpace=wrap;html=1;" vertex="1" parent="1">
          <mxGeometry x="110" y="420" width="50" height="20" as="geometry" />
        </mxCell>
        <mxCell id="oL1YtEc-q71KZIG-ltQX-157" value="price" style="ellipse;whiteSpace=wrap;html=1;" vertex="1" parent="1">
          <mxGeometry x="110" y="455" width="50" height="20" as="geometry" />
        </mxCell>
        <mxCell id="oL1YtEc-q71KZIG-ltQX-161" value="has" style="rhombus;whiteSpace=wrap;html=1;" vertex="1" parent="1">
          <mxGeometry x="345" y="600" width="50" height="40" as="geometry" />
        </mxCell>
        <mxCell id="oL1YtEc-q71KZIG-ltQX-164" value="adminID" style="ellipse;whiteSpace=wrap;html=1;" vertex="1" parent="1">
          <mxGeometry x="120" y="540" width="50" height="20" as="geometry" />
        </mxCell>
        <mxCell id="oL1YtEc-q71KZIG-ltQX-165" value="name" style="ellipse;whiteSpace=wrap;html=1;" vertex="1" parent="1">
          <mxGeometry x="120" y="580" width="50" height="20" as="geometry" />
        </mxCell>
      </root>
    </mxGraphModel>
  </diagram>
</mxfile>
